<svg id="Layer_1" data-name="Layer 1" xmlns="http://www.w3.org/2000/svg" viewBox="0 0 845.45 155.67"><defs><style>.cls-1{fill:#fff;}.cls-2{fill:#0166b3;}.cls-3{fill:#019a74;}.cls-4{fill:#fdb813;}</style></defs><path class="cls-1" d="M228.5,35.77H213.66v9.8h13.16v6.22H213.66V62.15H228.5v6.38H205.82V29.39H228.5Z"/><path class="cls-1" d="M235.62,27.09h7.84V68.53h-7.84Z"/><path class="cls-1" d="M264.74,69c-9,0-15.57-6.27-15.57-16s6.38-16,15.57-16c9,0,15.28,6.1,15.28,15.34a18.06,18.06,0,0,1-.22,3H257.12c.39,4.6,3.53,7.17,7.45,7.17a6.38,6.38,0,0,0,6.21-3.75h8.46C277.56,64.5,272.41,69,264.74,69Zm-7.56-18.93H271.9c-.11-4.09-3.35-6.66-7.39-6.66C260.76,43.45,257.79,45.85,257.18,50.11Z"/><path class="cls-1" d="M299.06,37c7.73,0,12.94,4,14.62,11h-8.46A6.08,6.08,0,0,0,299,43.67c-4.37,0-7.28,3.3-7.28,9.35s2.91,9.3,7.28,9.3c3.25,0,5.26-1.46,6.21-4.26h8.46c-1.68,6.61-6.89,11-14.62,11-9,0-15.34-6.27-15.34-16S290.1,37,299.06,37Z"/><path class="cls-1" d="M320.68,44H317V37.51h3.7V29.84h7.89v7.67h6.95V44h-6.95V59c0,2.07.85,3,3.31,3h3.64v6.6h-4.93c-5.94,0-9.91-2.52-9.91-9.63Z"/><path class="cls-1" d="M349,68.53h-7.84v-31H349v4.82a10.75,10.75,0,0,1,9.52-5.27v8.23h-2.07c-4.65,0-7.45,1.8-7.45,7.79Z"/><path class="cls-1" d="M363,29.22a4.82,4.82,0,1,1,4.81,4.59A4.59,4.59,0,0,1,363,29.22Zm.84,8.29h7.84v31H363.8Z"/><path class="cls-1" d="M392.69,37c7.73,0,12.94,4,14.62,11h-8.46a6.09,6.09,0,0,0-6.21-4.31c-4.37,0-7.28,3.3-7.28,9.35s2.91,9.3,7.28,9.3c3.24,0,5.26-1.46,6.21-4.26h8.46c-1.68,6.61-6.89,11-14.62,11-9,0-15.34-6.27-15.34-16S383.73,37,392.69,37Z"/><path class="cls-1" d="M425.23,37a12.29,12.29,0,0,1,10.25,4.92V37.51h7.89v31h-7.89V64a12.24,12.24,0,0,1-10.31,5c-7.84,0-14.11-6.44-14.11-16.13S417.33,37,425.23,37Zm2,6.88c-4.19,0-8.17,3.14-8.17,9s4,9.24,8.17,9.24,8.24-3.25,8.24-9.13S431.56,43.89,427.24,43.89Z"/><path class="cls-1" d="M451.05,27.09h7.83V68.53h-7.83Z"/><path class="cls-1" d="M497.86,28.94c8.68,0,15.74,4.65,18.37,12.66h-9A9.86,9.86,0,0,0,497.8,36c-6.83,0-11.7,5-11.7,12.93S491,61.87,497.8,61.87a9.82,9.82,0,0,0,9.41-5.66h9c-2.63,8.07-9.69,12.66-18.37,12.66C486.6,68.87,478,60.64,478,48.93S486.6,28.94,497.86,28.94Z"/><path class="cls-1" d="M536.72,69c-9,0-15.73-6.27-15.73-16s7-16,16-16,16,6.21,16,16S545.74,69,536.72,69Zm0-6.84c4.15,0,8.12-3,8.12-9.18s-3.86-9.18-8-9.18-7.9,3-7.9,9.18S532.52,62.2,536.72,62.2Z"/><path class="cls-1" d="M602.07,51.4c0-4.93-2.74-7.51-6.88-7.51s-7,2.58-7,7.51V68.53H580.4V51.4c0-4.93-2.74-7.51-6.89-7.51s-7,2.58-7,7.51V68.53h-7.84v-31h7.84v3.75a11.32,11.32,0,0,1,9.13-4.2c4.82,0,8.79,2.07,10.92,5.94a12.29,12.29,0,0,1,10.64-5.94c7.45,0,12.71,4.71,12.71,13.27v18.2h-7.84Z"/><path class="cls-1" d="M635.45,37c7.95,0,14.17,6.21,14.17,15.9S643.4,69,635.45,69a12.68,12.68,0,0,1-10.25-4.93V83.32h-7.84V37.51h7.84V42A12.4,12.4,0,0,1,635.45,37Zm-2.07,6.88c-4.2,0-8.18,3.25-8.18,9.13s4,9.13,8.18,9.13,8.23-3.36,8.23-9.24S637.63,43.89,633.38,43.89Z"/><path class="cls-1" d="M669.11,69c-9,0-15.74-6.27-15.74-16s7-16,16-16,16,6.21,16,16S678.12,69,669.11,69Zm0-6.84c4.14,0,8.12-3,8.12-9.18s-3.87-9.18-8-9.18-7.9,3-7.9,9.18S664.91,62.2,669.11,62.2Z"/><path class="cls-1" d="M712.79,51.4c0-5-2.75-7.67-6.89-7.67s-7,2.68-7,7.67V68.53h-7.84v-31h7.84v3.86a11.57,11.57,0,0,1,9.35-4.31c7.22,0,12.38,4.71,12.38,13.27v18.2h-7.84Z"/><path class="cls-1" d="M741.63,69c-9,0-15.57-6.27-15.57-16s6.38-16,15.57-16c9,0,15.28,6.1,15.28,15.34a18.06,18.06,0,0,1-.22,3H734c.39,4.6,3.53,7.17,7.45,7.17a6.39,6.39,0,0,0,6.21-3.75h8.46C754.45,64.5,749.3,69,741.63,69Zm-7.57-18.93h14.73c-.11-4.09-3.36-6.66-7.39-6.66C737.65,43.45,734.68,45.85,734.06,50.11Z"/><path class="cls-1" d="M784.35,51.4c0-5-2.74-7.67-6.89-7.67s-7,2.68-7,7.67V68.53h-7.84v-31h7.84v3.86a11.61,11.61,0,0,1,9.36-4.31c7.22,0,12.37,4.71,12.37,13.27v18.2h-7.84Z"/><path class="cls-1" d="M800.87,44h-3.69V37.51h3.69V29.84h7.9v7.67h6.94V44h-6.94V59c0,2.07.84,3,3.3,3h3.64v6.6h-4.93c-5.93,0-9.91-2.52-9.91-9.63Z"/><path class="cls-1" d="M833.24,69c-7.78,0-13.22-4.54-13.55-10.31h7.89c.28,2.36,2.47,4.15,5.6,4.15s4.76-1.4,4.76-3.19c0-5.55-17.53-2-17.53-13.39,0-5.15,4.6-9.29,12.27-9.29,7.5,0,12,4.08,12.49,10.24h-7.51c-.22-2.4-2.13-4-5.2-4s-4.43,1.18-4.43,3c0,5.66,17.19,2.13,17.42,13.5C845.45,65,840.8,69,833.24,69Z"/><path class="cls-1" d="M205.82,91.45h7.84v39.08h-7.84Z"/><path class="cls-1" d="M243.12,113.4c0-5-2.74-7.67-6.89-7.67s-7,2.68-7,7.67v17.13h-7.84v-31h7.84v3.86a11.6,11.6,0,0,1,9.35-4.31c7.23,0,12.38,4.71,12.38,13.27v18.2h-7.84Z"/><path class="cls-1" d="M259.64,106h-3.7V99.51h3.7V91.84h7.9v7.67h6.94V106h-6.94v15c0,2.07.84,3,3.3,3h3.64v6.6h-4.93c-5.93,0-9.91-2.52-9.91-9.63Z"/><path class="cls-1" d="M293.69,131c-9,0-15.57-6.27-15.57-16s6.38-16,15.57-16c9,0,15.28,6.1,15.28,15.34a18.06,18.06,0,0,1-.22,3H286.07c.39,4.6,3.53,7.17,7.45,7.17a6.38,6.38,0,0,0,6.21-3.75h8.46C306.51,126.5,301.36,131,293.69,131Zm-7.56-18.93h14.73c-.12-4.09-3.36-6.66-7.4-6.66C289.71,105.45,286.74,107.85,286.13,112.11Z"/><path class="cls-1" d="M322.53,130.53h-7.84v-31h7.84v4.82a10.74,10.74,0,0,1,9.52-5.27v8.23H330c-4.64,0-7.44,1.8-7.44,7.79Z"/><path class="cls-1" d="M359,113.4c0-5-2.75-7.67-6.89-7.67s-7,2.68-7,7.67v17.13h-7.84v-31h7.84v3.86a11.6,11.6,0,0,1,9.35-4.31c7.23,0,12.38,4.71,12.38,13.27v18.2H359Z"/><path class="cls-1" d="M386.48,99a12.26,12.26,0,0,1,10.24,4.92V99.51h7.9v31h-7.9V126a12.21,12.21,0,0,1-10.3,5c-7.84,0-14.11-6.44-14.11-16.13S378.58,99,386.48,99Zm2,6.88c-4.2,0-8.17,3.14-8.17,9s4,9.24,8.17,9.24,8.23-3.25,8.23-9.13S392.8,105.89,388.49,105.89Z"/><path class="cls-1" d="M413.53,106h-3.7V99.51h3.7V91.84h7.89v7.67h6.95V106h-6.95v15c0,2.07.84,3,3.3,3h3.65v6.6h-4.93c-5.94,0-9.91-2.52-9.91-9.63Z"/><path class="cls-1" d="M433.18,91.22A4.82,4.82,0,1,1,438,95.81,4.6,4.6,0,0,1,433.18,91.22Zm.84,8.29h7.84v31H434Z"/><path class="cls-1" d="M463.36,131c-9,0-15.73-6.27-15.73-16s7-16,16-16,16,6.21,16,16S472.38,131,463.36,131Zm0-6.84c4.15,0,8.12-3,8.12-9.18s-3.86-9.18-8-9.18-7.9,3-7.9,9.18S459.16,124.2,463.36,124.2Z"/><path class="cls-1" d="M507,113.4c0-5-2.74-7.67-6.88-7.67s-7,2.68-7,7.67v17.13h-7.85v-31h7.85v3.86a11.57,11.57,0,0,1,9.35-4.31c7.22,0,12.37,4.71,12.37,13.27v18.2H507Z"/><path class="cls-1" d="M534.48,99a12.28,12.28,0,0,1,10.25,4.92V99.51h7.9v31h-7.9V126a12.24,12.24,0,0,1-10.3,5c-7.84,0-14.12-6.44-14.12-16.13S526.59,99,534.48,99Zm2,6.88c-4.2,0-8.18,3.14-8.18,9s4,9.24,8.18,9.24,8.23-3.25,8.23-9.13S540.81,105.89,536.5,105.89Z"/><path class="cls-1" d="M560.3,89.09h7.84v41.44H560.3Z"/><path class="cls-1" d="M139.73,110.13a6.09,6.09,0,0,1,2.94.77,5.46,5.46,0,0,1,2.23,2.21,6.09,6.09,0,0,1,.8,3,6,6,0,0,1-.79,3,5.55,5.55,0,0,1-2.21,2.22,6,6,0,0,1-5.94,0,5.64,5.64,0,0,1-2.22-2.22,6,6,0,0,1-.79-3,6.09,6.09,0,0,1,.8-3,5.54,5.54,0,0,1,2.24-2.21A6.09,6.09,0,0,1,139.73,110.13Zm0,1a5.06,5.06,0,0,0-2.45.64,4.63,4.63,0,0,0-1.87,1.85,5,5,0,0,0,0,5,4.68,4.68,0,0,0,1.85,1.84,4.92,4.92,0,0,0,5,0,4.59,4.59,0,0,0,1.84-1.84,5,5,0,0,0,0-5,4.6,4.6,0,0,0-1.86-1.85A5.12,5.12,0,0,0,139.73,111.12Zm-2.62,8.29V113h2.21a5.81,5.81,0,0,1,1.64.17,1.6,1.6,0,0,1,.8.63,1.58,1.58,0,0,1,.31.94,1.71,1.71,0,0,1-.51,1.23,2,2,0,0,1-1.33.58,1.92,1.92,0,0,1,.55.34,8.41,8.41,0,0,1,.95,1.28l.78,1.26h-1.27l-.57-1a5.35,5.35,0,0,0-1.08-1.49,1.32,1.32,0,0,0-.83-.23h-.61v2.74Zm1-3.62h1.25a2,2,0,0,0,1.24-.27.87.87,0,0,0,.32-.71,1,1,0,0,0-.15-.52,1,1,0,0,0-.44-.33,3.12,3.12,0,0,0-1-.11h-1.18Z"/><path class="cls-1" d="M132.54,106.78A67.59,67.59,0,0,1,0,88.07c0-1.54.06-3.08.17-4.6.1-1.72.28-3.42.53-5.1A67.57,67.57,0,0,1,96,26.75C90.7,29,85.38,31.27,80.08,33.63A55.87,55.87,0,0,0,12.14,94.84a55.2,55.2,0,0,0,2.84,12,55.87,55.87,0,0,0,10.17,17.5A56.51,56.51,0,0,0,34.48,133a55.81,55.81,0,0,0,83.19-20.26c4-1.68,8-3.27,11.72-4.76Z"/><path class="cls-2" d="M153.89,41.45,150.15,64.2c-5.28,1.63-11.15,3.62-17.4,5.92-.55.19-1.1.4-1.66.61q-4,1.47-8.16,3.1l-.89.3s0,0,0,0l-.34.13-1.13.45C88.5,87.43,50,106.14,25.15,124.35A55.87,55.87,0,0,1,15,106.85c17.73-13,55-35.2,95.29-50.92l2.32-.9c1.25-.48,2.51-1,3.77-1.42,2.5-.81,5-1.61,7.56-2.38-.07-.1-.14-.21-.21-.3l.26-.09C133.72,47.39,143.73,44.21,153.89,41.45Z"/><path class="cls-2" d="M123.92,51.23c-2.54.77-5.06,1.57-7.56,2.38q2.46-.93,4.94-1.83l2.41-.85C123.78,51,123.85,51.13,123.92,51.23Z"/><path class="cls-3" d="M172.41,0l-3.14,22.84C158.77,25.22,138.65,32,116,40.92c-3.93,1.55-7.93,3.15-12,4.82C68,60.55,28.87,79.59,12.14,94.84a56.07,56.07,0,0,1-.41-6.77,55.5,55.5,0,0,1,4-20.87c17-11.12,40.39-23,64.3-33.57C85.38,31.27,90.7,29,96,26.75,127,13.75,156.69,3.46,172.41,0Z"/><path class="cls-4" d="M169.27,71.32l-4.38,24c-3.95,1.11-16.4,5.27-32.35,11.47L129.39,108c-3.76,1.49-7.69,3.08-11.72,4.76l-2,.83C96.33,121.77,74.77,132,57.54,143a55.53,55.53,0,0,1-23.06-10c18.7-13.26,53.39-31,85.53-44.48l3.42-1.42c.52-.21,1-.43,1.55-.63a.11.11,0,0,1,.07,0c3.31-1.21,6.56-2.38,9.79-3.49,0-.12,0-.25,0-.38l.15,0A292.48,292.48,0,0,1,169.27,71.32Z"/><path class="cls-4" d="M134.84,83c-3.23,1.11-6.48,2.28-9.79,3.49q2.94-1.2,5.84-2.34l3.91-1.53C134.82,82.74,134.83,82.87,134.84,83Z"/></svg>